# xmcd CD database file
# Copyright (C) 1997 Ti Kan
#
# Track frame offsets:
#  150
#  14535
#  30455
#  46410
#  59417
#  78927
#  93522
#  110277
#  124335
#  135972
#  149320
#  162602
#  175777
#
# Disc length: 2601 seconds
#
# Revision: 1
# Processed by: cddbd v1.4b41PL1 Copyright (c) Steve Scherf et al.
# Submitted via: CDWizzard Release:4.24
#
DISCID=aa0a270d
DTITLE=Trailer Bride - Trailer Bride
DYEAR=1900
DGENRE=
TTITLE0=Sorry Times
TTITLE1=Mardi Gras
TTITLE2=Let Momma Drive
TTITLE3=Rouge
TTITLE4=Arrowheads
TTITLE5=Road to Canaan
TTITLE6=Trailer Bride
TTITLE7=Maudlin
TTITLE8=Landyacht Take Me Home
TTITLE9=Chatham Co. Militia
TTITLE10=Sway
TTITLE11=Flying Saucer
TTITLE12=Trains at Night
EXTD=
EXTT0=
EXTT1=
EXTT2=
EXTT3=
EXTT4=
EXTT5=
EXTT6=
EXTT7=
EXTT8=
EXTT9=
EXTT10=
EXTT11=
EXTT12=
PLAYORDER=
